<svg width="520" height="520" xmlns="http://www.w3.org/2000/svg">

 <g>
  <title>Layer 1</title>
  <g stroke="null">
   <g stroke="null">
    <path stroke="null" fill="#0ACF83" d="m199.36226,441.91322c33.45735,0 60.63774,-27.15078 60.63774,-60.63774l0,-60.63774l-60.63774,0c-33.45735,0 -60.63774,27.15078 -60.63774,60.63774c0,33.48695 27.18039,60.63774 60.63774,60.63774l0,0l0,0z" class="st4"/>
    <path stroke="null" fill="#A259FF" d="m138.72452,260c0,-33.45735 27.18039,-60.63774 60.63774,-60.63774l60.63774,0l0,121.27548l-60.63774,0c-33.45735,0 -60.63774,-27.15078 -60.63774,-60.63774l0,0l0,0z" class="st3"/>
    <path stroke="null" fill="#F24E1E" d="m138.72452,138.72452c0,-33.45735 27.18039,-60.63774 60.63774,-60.63774l60.63774,0l0,121.27548l-60.63774,0c-33.45735,0 -60.63774,-27.15078 -60.63774,-60.63774l0,0z" class="st1"/>
    <path stroke="null" fill="#FF7262" d="m260,78.08678l60.63774,0c33.45735,0 60.63774,27.18039 60.63774,60.63774c0,33.48695 -27.15078,60.63774 -60.63774,60.63774l-60.63774,0l0,-121.27548l0,0z" class="st2"/>
    <path stroke="null" fill="#1ABCFE" d="m381.27548,260c0,33.48695 -27.15078,60.63774 -60.63774,60.63774c-33.48695,0 -60.63774,-27.15078 -60.63774,-60.63774c0,-33.45735 27.15078,-60.63774 60.63774,-60.63774c33.48695,0 60.63774,27.18039 60.63774,60.63774l0,0z" class="st0"/>
   </g>
  </g>
 </g>
</svg>