<?xml version="1.0" encoding="utf-8"?><svg version="1.1" id="Layer_1" xmlns="http://www.w3.org/2000/svg" xmlns:xlink="http://www.w3.org/1999/xlink" x="0px" y="0px" viewBox="0 0 122.88 122.88" style="enable-background:new 0 0 122.88 122.88" xml:space="preserve"><style type="text/css"><![CDATA[
	.st0{fill-rule:evenodd;clip-rule:evenodd;fill:#FFFFFF;}
	.st1{fill-rule:evenodd;clip-rule:evenodd;fill:#0079BF;}
]]></style><g><path class="st1" d="M15.36,0h92.16c8.48,0,15.36,6.88,15.36,15.36l0,92.16c0,8.48-6.88,15.36-15.36,15.36H15.36 C6.88,122.88,0,116,0,107.52l0-92.16C0,6.88,6.88,0,15.36,0L15.36,0z"/><path class="st0" d="M76.26,16.09h23.73c3.75,0,6.82,3.07,6.82,6.82v39.95c0,3.75-3.07,6.82-6.82,6.82H76.26 c-3.75,0-6.82-3.07-6.82-6.82V22.91C69.44,19.16,72.51,16.09,76.26,16.09L76.26,16.09z M22.96,16.09H46.7 c3.75,0,6.82,3.07,6.82,6.82v70.92c0,3.75-3.07,6.82-6.82,6.82H22.96c-3.75,0-6.82-3.07-6.82-6.82V22.91 C16.14,19.16,19.21,16.09,22.96,16.09L22.96,16.09z"/></g></svg>